<svg xmlns="http://www.w3.org/2000/svg" viewBox="0 0 24 24"><path fill="#eb123a" d="m21.28,12h0c1.36-1.55.71-3.98-1.24-4.64h0s0,0,0,0c.4-2.02-1.38-3.79-3.39-3.39h0c-.66-1.95-3.09-2.6-4.64-1.24h0s0,0,0,0c-1.55-1.36-3.98-.71-4.64,1.24h0s0,0,0,0c-2.02-.4-3.79,1.38-3.39,3.39h0c-1.95.67-2.6,3.1-1.24,4.65h0s0,0,0,0c-1.36,1.55-.71,3.98,1.24,4.64h0s0,0,0,0c-.4,2.02,1.38,3.79,3.39,3.39h0c.66,1.95,3.09,2.6,4.64,1.24h0s0,0,0,0c1.55,1.36,3.98.71,4.64-1.24h0s0,0,0,0c2.02.4,3.79-1.38,3.39-3.39h0c1.95-.67,2.6-3.1,1.24-4.65h0Z" class="color2675e2 svgShape"/><path fill="#edeaeb" d="m10.78,15.29c-.19,0-.38-.07-.53-.22l-3.16-3.16c-.29-.29-.29-.77,0-1.06s.77-.29,1.06,0l2.63,2.63,5.35-5.35c.29-.29.77-.29,1.06,0s.29.77,0,1.06l-5.88,5.88c-.15.15-.34.22-.53.22Z" class="coloredebea svgShape"/></svg>